<svg xmlns="http://www.w3.org/2000/svg" viewBox="0 0 64 64" role="img" aria-label="SkyBooking">
  <defs>
    <linearGradient id="g" x1="0" y1="0" x2="1" y2="1">
      <stop offset="0%" stop-color="#0f6cbd" />
      <stop offset="100%" stop-color="#13908c" />
    </linearGradient>
  </defs>
  <rect width="64" height="64" rx="14" fill="url(#g)" />
  <path d="M14 33h14l9-11c1-1 3-1 4 0l2 2c1 1 1 3 0 4l-7 5h14c1 0 2 1 2 2v2c0 1-1 2-2 2H36l7 5c1 1 1 3 0 4l-2 2c-1 1-3 1-4 0l-9-11H14c-1 0-2-1-2-2v-2c0-1 1-2 2-2z" fill="#ffffff" />
</svg>
